<?xml version="1.0" standalone="no"?>
<svg xmlns:xlink="http://www.w3.org/1999/xlink" id="wave" style="transform:rotate(180deg); transition: 0.3s" viewBox="0 0 1440 100" version="1.1" xmlns="http://www.w3.org/2000/svg"><defs><linearGradient id="sw-gradient-0" x1="0" x2="0" y1="1" y2="0"><stop stop-color="rgba(62, 30, 104, 1)" offset="0%"/><stop stop-color="rgba(62, 30, 104, 1)" offset="100%"/></linearGradient></defs><path style="transform:translate(0, 0px); opacity:1" fill="url(#sw-gradient-0)" d="M0,0L160,50L320,80L480,60L640,50L800,60L960,70L1120,30L1280,50L1440,10L1600,10L1760,50L1920,60L2080,30L2240,20L2400,60L2560,90L2720,50L2880,0L3040,70L3200,20L3360,40L3520,70L3680,30L3840,90L3840,100L3680,100L3520,100L3360,100L3200,100L3040,100L2880,100L2720,100L2560,100L2400,100L2240,100L2080,100L1920,100L1760,100L1600,100L1440,100L1280,100L1120,100L960,100L800,100L640,100L480,100L320,100L160,100L0,100Z"/></svg>
